<svg width="160" height="160" viewBox="0 0 160 160" fill="none" xmlns="http://www.w3.org/2000/svg">
<rect width="160" height="160" rx="80" fill="white"/>
<path d="M82 118.794C84.2941 118.794 86.1538 116.923 86.1538 114.615C86.1538 112.307 84.2941 110.436 82 110.436C79.7059 110.436 77.8462 112.307 77.8462 114.615C77.8462 116.923 79.7059 118.794 82 118.794Z" fill="url(#paint0_linear)"/>
<path fill-rule="evenodd" clip-rule="evenodd" d="M64 38C59.0294 38 55 42.0538 55 47.0545V111.945C55 116.946 59.0294 121 64 121H100C104.971 121 109 116.946 109 111.945V47.0545C109 42.0539 104.971 38 100 38H64ZM66.7692 44.965C61.7987 44.965 57.7692 49.0189 57.7692 54.0196V98.5958C57.7692 103.596 61.7987 107.65 66.7692 107.65H97.2308C102.201 107.65 106.231 103.596 106.231 98.5958V54.0195C106.231 49.0189 102.201 44.965 97.2308 44.965H66.7692ZM87.5385 114.615C87.5385 117.693 85.0588 120.187 82 120.187C78.9412 120.187 76.4615 117.693 76.4615 114.615C76.4615 111.538 78.9412 109.043 82 109.043C85.0588 109.043 87.5385 111.538 87.5385 114.615Z" fill="url(#paint1_linear)"/>
<circle cx="103.013" cy="47.9869" r="19.9869" fill="url(#paint2_linear)"/>
<path d="M100.017 37.1347C100.017 36.0881 100.866 35.2397 101.912 35.2397H104.994C106.041 35.2397 106.889 36.0881 106.889 37.1347V58.0841C106.889 59.1306 106.041 59.979 104.994 59.979H101.912C100.866 59.979 100.017 59.1306 100.017 58.0841V37.1347Z" fill="#FCFCFC"/>
<path d="M92.9159 50.9829C91.8694 50.9829 91.021 50.1345 91.021 49.088V46.0058C91.021 44.9593 91.8694 44.1109 92.9159 44.1109H113.865C114.912 44.1109 115.76 44.9593 115.76 46.0058V49.088C115.76 50.1345 114.912 50.9829 113.865 50.9829H92.9159Z" fill="#FCFCFC"/>
<defs>
<linearGradient id="paint0_linear" x1="78.0636" y1="137.409" x2="99.9693" y2="-17.5974" gradientUnits="userSpaceOnUse">
<stop stop-color="#50B49C"/>
<stop offset="1" stop-color="#66FDF9"/>
</linearGradient>
<linearGradient id="paint1_linear" x1="78.0636" y1="137.409" x2="99.9693" y2="-17.5974" gradientUnits="userSpaceOnUse">
<stop stop-color="#50B49C"/>
<stop offset="1" stop-color="#66FDF9"/>
</linearGradient>
<linearGradient id="paint2_linear" x1="103.013" y1="20.5146" x2="86.4471" y2="61.1814" gradientUnits="userSpaceOnUse">
<stop stop-color="#E9D0EF"/>
<stop offset="1" stop-color="#D3A8DD"/>
</linearGradient>
</defs>
</svg>
